<svg width="945" height="602" xmlns="http://www.w3.org/2000/svg" xmlns:xlink="http://www.w3.org/1999/xlink" overflow="hidden"><defs><clipPath id="clip0"><rect x="0" y="0" width="945" height="602"/></clipPath></defs><g clip-path="url(#clip0)"><rect x="0" y="0" width="945" height="602.227" fill="#FFFFFF"/><rect x="0" y="0" width="945" height="602.227" fill="#F2F2F2"/><path d="M63.4558 465.176 61.4755 462.557C31.8156 421.381 16 372.687 16 322.023L16 268.101 189.342 268.101C191.322 268.101 192.636 269.406 192.636 271.368L192.636 271.368C192.636 273.329 191.322 274.634 189.342 274.634L70.378 274.634C44.0126 274.634 22.5891 295.883 22.5891 322.023L22.5891 322.023C22.5891 350.462 27.8639 378.244 37.7476 404.384 48.6214 433.151 83.2231 444.583 108.931 427.595L204.833 364.841C206.48 363.865 208.452 364.184 209.442 365.817L209.442 365.817C210.432 367.46 210.099 369.412 208.452 370.397L63.4558 465.176Z" fill="#440154" fill-rule="evenodd"/><path d="M498.278 474.609 359 370.102 361.639 367.497C372.204 357.4 379.463 344.052 381.769 329.728L382.102 327.124 555.704 327.124C557.676 327.124 559 328.423 559 330.381L559 330.381C559 332.333 557.676 333.632 555.704 333.632L408.509 333.632C396.954 333.632 386.722 340.148 381.769 350.238L381.769 350.238C375.833 362.61 379.463 377.587 390.685 386.054L501.907 469.399C503.222 470.375 503.556 472.657 502.565 473.956L502.565 473.956C501.574 475.262 499.593 475.585 498.278 474.609Z" fill="#9FDA3A" fill-rule="evenodd"/><path d="M273.395 444.908 273.395 577.948C273.395 579.911 274.718 581.219 276.702 581.219L276.702 581.219C278.677 581.219 280 579.911 280 577.948L280 406.337 276.702 406.337C260.524 405.683 245.66 399.139 234.103 388.356 232.79 387.047 231.798 385.739 230.475 384.43L228.49 382.144 83.5525 476.945C81.8989 477.921 81.5682 479.885 82.5604 481.516L82.5604 481.516C83.5525 483.156 85.5277 483.479 87.1813 482.502L201.748 407.314C214.958 398.485 231.798 397.831 246.322 404.697 246.652 404.697 246.652 405.029 246.983 405.029 263.161 412.217 273.395 427.581 273.395 444.908Z" fill="#31688E" fill-rule="evenodd"/><path d="M298.94 584.22C298.281 584.22 297.947 584.22 297.288 584.22L293 584.22 293 412.279C293 410.315 294.318 409.003 296.295 409.003L296.295 409.003C298.281 409.003 299.599 410.315 299.599 412.279L299.599 551.858C299.599 566.573 312.464 578.012 326.981 576.374 375.821 570.492 421.682 549.894 458.308 516.879 469.52 506.743 468.536 488.77 456.322 479.285L345.135 394.948C343.808 393.971 343.483 391.681 344.476 390.378L344.476 390.378C345.46 389.065 347.772 388.74 349.09 389.717L488 494.652 485.689 497.268C439.494 552.509 371.199 584.22 298.94 584.22Z" fill="#1FA187" fill-rule="evenodd"/><path d="M881.544 137.052 883.524 139.67C913.184 180.846 929 229.54 929 280.204L929 334.126 755.658 334.126C753.678 334.126 752.364 332.821 752.364 330.86L752.364 330.86C752.364 328.898 753.678 327.593 755.658 327.593L874.622 327.593C900.987 327.593 922.411 306.344 922.411 280.204L922.411 280.204C922.411 251.765 917.136 223.983 907.252 197.844 896.379 169.076 861.777 157.644 836.069 174.633L740.167 237.386C738.52 238.363 736.548 238.043 735.558 236.41L735.558 236.41C734.568 234.768 734.901 232.815 736.548 231.83L881.544 137.052Z" fill="#440154" fill-rule="evenodd"/><path d="M446.722 127.618 586 232.126 583.361 234.731C572.796 244.827 565.537 258.175 563.232 272.499L562.898 275.104 389.296 275.104C387.324 275.104 386 273.805 386 271.846L386 271.846C386 269.894 387.324 268.595 389.296 268.595L536.491 268.595C548.046 268.595 558.278 262.079 563.232 251.989L563.232 251.989C569.167 239.617 565.537 224.641 554.315 216.173L443.093 132.828C441.778 131.852 441.445 129.57 442.435 128.271L442.435 128.271C443.426 126.965 445.407 126.642 446.722 127.618Z" fill="#9FDA3A" fill-rule="evenodd"/><path d="M671.605 157.319 671.605 24.2798C671.605 22.3167 670.282 21.0079 668.298 21.0079L668.298 21.0079C666.323 21.0079 665 22.3167 665 24.2798L665 195.89 668.298 195.89C684.476 196.544 699.34 203.088 710.897 213.871 712.21 215.18 713.202 216.489 714.525 217.797L716.51 220.083 861.447 125.283C863.101 124.306 863.432 122.343 862.44 120.711L862.44 120.711C861.447 119.071 859.472 118.748 857.819 119.725L743.252 194.913C730.042 203.742 713.202 204.397 698.678 197.53 698.348 197.53 698.348 197.199 698.017 197.199 681.839 190.01 671.605 174.646 671.605 157.319Z" fill="#31688E" fill-rule="evenodd"/><path d="M646.06 18.0068C646.719 18.0068 647.053 18.0068 647.712 18.0068L652 18.0068 652 189.949C652 191.912 650.682 193.225 648.705 193.225L648.705 193.225C646.719 193.225 645.401 191.912 645.401 189.949L645.401 50.3698C645.401 35.6544 632.536 24.2151 618.019 25.8532 569.179 31.7357 523.318 52.3336 486.692 85.3481 475.48 95.4842 476.464 113.458 488.678 122.942L599.865 207.279C601.192 208.257 601.517 210.546 600.524 211.85L600.524 211.85C599.54 213.162 597.229 213.488 595.91 212.51L457 107.575 459.311 104.96C505.506 49.7182 573.801 18.0068 646.06 18.0068Z" fill="#28858B" fill-rule="evenodd"/><text fill="#440154" font-family="Arial,Arial_MSFontService,sans-serif" font-weight="700" font-size="32" transform="matrix(1 0 0 1.00038 174.967 333)">01<tspan fill="#31688E" font-size="32" x="39.987" y="107.959">02</tspan><tspan fill="#28858B" font-size="32" x="141.328" y="106.96">03</tspan><tspan fill="#9FDA3A" font-size="32" x="228.857" y="38.9853">04</tspan><tspan fill="#9FDA3A" font-size="32" x="333.27" y="-79.9698">05</tspan><tspan fill="#1FA187" font-size="32" x="425.675" y="-137.948">06</tspan><tspan fill="#31688E" font-size="32" x="519.755" y="-151.943">07</tspan><tspan font-size="32" x="562.127" y="-41.9841">08</tspan><tspan fill="#262626" font-weight="400" font-size="16" x="-131.478" y="-9.99623">What do we want </tspan><tspan fill="#262626" font-weight="400" font-size="16" x="-121.643" y="8.9966">to know about a </tspan><tspan fill="#262626" font-weight="400" font-size="16" x="-110.641" y="27.9894">phenomenon?</tspan><tspan fill="#262626" font-weight="400" font-size="16" x="-49.6646" y="145.945">What design will </tspan><tspan fill="#262626" font-weight="400" font-size="16" x="-49.6646" y="164.938">we use for our </tspan><tspan fill="#262626" font-weight="400" font-size="16" x="-49.6646" y="183.931">research project?</tspan><tspan fill="#262626" font-weight="400" font-size="16" x="143.423" y="146.945">What blend of </tspan><tspan fill="#262626" font-weight="400" font-size="16" x="143.423" y="165.937">humanistic and </tspan><tspan fill="#262626" font-weight="400" font-size="16" x="143.423" y="184.93">quantitative </tspan><tspan fill="#262626" font-weight="400" font-size="16" x="143.423" y="203.923">methods do </tspan><tspan fill="#262626" font-weight="400" font-size="16" x="143.423" y="222.916">we need?</tspan><tspan fill="#262626" font-weight="400" font-size="16" x="273.223" y="29.9887">What tools will </tspan><tspan fill="#262626" font-weight="400" font-size="16" x="273.223" y="48.9815">we needs to </tspan><tspan fill="#262626" font-weight="400" font-size="16" x="273.223" y="67.9743">implement </tspan><tspan fill="#262626" font-weight="400" font-size="16" x="273.223" y="86.9672">those methods?</tspan><tspan fill="#262626" font-weight="400" font-size="16" x="192.73" y="-119.955">What are the </tspan><tspan fill="#262626" font-weight="400" font-size="16" x="192.73" y="-100.962">outputs generated </tspan><tspan fill="#262626" font-weight="400" font-size="16" x="192.73" y="-81.9691">by those tools?</tspan><tspan fill="#262626" font-weight="400" font-size="16" x="368.579" y="-222.916">What are the </tspan><tspan fill="#262626" font-weight="400" font-size="16" x="367.746" y="-203.923">results of our </tspan><tspan fill="#262626" font-weight="400" font-size="16" x="358.244" y="-184.93">data analysis?</tspan><tspan fill="#262626" font-weight="400" font-size="16" x="522.005" y="-243.908">What is the </tspan><tspan fill="#262626" font-weight="400" font-size="16" x="522.005" y="-224.915">answer to </tspan><tspan fill="#262626" font-weight="400" font-size="16" x="522.005" y="-205.922">our research </tspan><tspan fill="#262626" font-weight="400" font-size="16" x="522.005" y="-186.929">question(s)?</tspan><tspan fill="#262626" font-weight="400" font-size="16" x="606.325" y="-100.962">What do the </tspan><tspan fill="#262626" font-weight="400" font-size="16" x="606.325" y="-81.9691">answer(s) tell </tspan><tspan fill="#262626" font-weight="400" font-size="16" x="606.325" y="-62.9762">us about a </tspan><tspan fill="#262626" font-weight="400" font-size="16" x="606.325" y="-43.9834">phenomenon?</tspan></text><path d="M18.7891 61.9999 18.7891 49.5677 17.1127 48.4503C13.0061 44.3994 10.4571 38.8118 10.4571 32.6655 10.4571 20.373 20.6528 10.3155 33.1143 10.3155 38.6914 10.3155 43.8328 12.2926 47.7542 15.6451L42.7 20.6309 60.9999 20.6309 60.9999 2.57889 55.1614 8.33831C49.3228 3.18063 41.5671 0 33.1143 0 14.8143 0 0 14.6135 0 32.6655 0 43.948 5.78688 53.8874 14.5947 59.7552Z" fill="#262626" fill-rule="evenodd" transform="matrix(1 0 0 -1.00038 261 351.132)"/><path d="M644.789 317.12 644.789 304.683 643.113 303.565C639.006 299.512 636.457 293.923 636.457 287.774 636.457 275.477 646.653 265.416 659.114 265.416 664.691 265.416 669.833 267.394 673.754 270.747L668.7 275.735 687 275.735 687 257.676 681.161 263.438C675.323 258.278 667.567 255.096 659.114 255.096 640.814 255.096 626 269.715 626 287.774 626 299.061 631.787 309.004 640.595 314.874Z" fill="#262626" fill-rule="evenodd"/></g></svg>